<svg width="151" height="49" viewBox="0 0 151 49" fill="none" xmlns="http://www.w3.org/2000/svg">
<path d="M84.4186 12.5581L88.6047 5.58138V4.18604L97.6744 19.5349L99.0698 16.0465L103.256 13.9535L108.837 12.5581L115.116 13.9535L120 16.7442L122.791 21.6279V13.9535H129.767L136.744 21.6279L143.023 13.9535H150V37.6744H140.93V28.6046L136.744 32.7907L131.86 27.2093V37.6744H122.791L122.093 30L120 35.5814L114.419 38.3721H108.837L106.744 39.7674L100.465 46.7442L96.2791 43.2558L90 42.5581L84.4186 43.2558L79.5349 46.7442L71.8605 39.7674L78.1395 27.2093L80.9302 6.97673L84.4186 12.5581Z" fill="#221958"/>
<path d="M104.316 13.8053L104.306 13.808L104.295 13.811C102.771 14.2405 101.443 14.9645 100.42 15.9549L100.419 15.956C99.4124 16.9345 98.6861 17.7531 98.1736 19.4399L98.0941 19.7017L98.2018 19.9532L100.817 26.0587L100.822 26.0705L100.828 26.0821L103.966 32.767L103.971 32.7759L103.975 32.7847L105.197 35.2191L105.198 35.2202L105.895 36.6145L105.949 36.7233L106.035 36.8094L106.691 37.4655C106.692 37.4657 106.692 37.466 106.692 37.4662C106.73 37.5147 106.778 37.568 106.839 37.6236C106.962 37.7354 107.129 37.8517 107.356 37.9562C107.806 38.1636 108.485 38.3233 109.52 38.3233C111.482 38.3233 113.227 38.1425 114.735 37.7187C116.272 37.3318 117.595 36.6049 118.65 35.6279L118.657 35.6222L118.663 35.6164C119.689 34.6228 120.456 33.3061 120.987 31.7037L120.987 31.7038L120.991 31.6918C121.48 30.1281 121.737 28.1763 121.737 25.8971C121.737 23.5741 121.48 21.5801 120.993 19.9747L120.99 19.9657L120.987 19.9567C120.458 18.3599 119.695 17.0038 118.676 15.9678L118.663 15.9553L118.65 15.9434C117.593 14.9641 116.272 14.2412 114.746 13.811L114.735 13.808L114.724 13.8053C113.238 13.433 111.503 13.2035 109.52 13.2035C107.537 13.2035 105.802 13.433 104.316 13.8053ZM131.461 36.9048V27.0491L135.97 32.0587L136.528 32.6779L137.085 32.0587L141.594 27.0491V36.9048V37.6548H142.344H149.124H149.874V36.9048V14.622V13.872H149.124H143.516H143.164L142.939 14.1431L136.528 21.8703L130.116 14.1431L129.891 13.872H129.539H123.932H123.182V14.622V36.9048V37.6548H123.932H130.711H131.461V36.9048ZM112.253 21.5235L112.826 21.0394L112.253 21.5235C112.822 22.1963 113.206 23.6038 113.206 25.8971C113.206 28.0761 112.831 29.4141 112.288 30.1005C111.724 30.7636 110.883 31.1189 109.52 31.1189C108.137 31.1189 107.273 30.7531 106.759 30.1086C106.218 29.4317 105.876 28.1025 105.876 25.8971C105.876 24.747 105.958 23.8001 106.117 23.0492C106.276 22.2923 106.503 21.7826 106.759 21.4627C107.283 20.8058 108.159 20.4079 109.52 20.4079C110.801 20.4079 111.665 20.8268 112.253 21.5235Z" stroke="url(#paint0_linear_29_14)" stroke-width="1.5"/>
<path d="M6.19535 23.9442L13.3954 31.8474L20.5954 23.9777V37.6744H26.7907V14.5674H22.0019L13.4623 24.547L4.82233 14.5674H0V37.6744H6.19535V23.9442Z" fill="white"/>
<path d="M42.013 38.1767C44.1563 38.1767 46.0316 38.0093 47.6056 37.6074C49.146 37.2391 50.4521 36.6028 51.4567 35.6651C52.4614 34.7609 53.2316 33.5219 53.7339 31.9814C54.2028 30.4409 54.4707 28.4986 54.4707 26.1544C54.4707 23.7433 54.2028 21.734 53.667 20.16C53.1311 18.6195 52.3609 17.3805 51.3228 16.4763C50.2846 15.5721 48.9786 14.9358 47.4381 14.6009C45.8642 14.266 44.0558 14.0651 42.013 14.0651C39.9367 14.0651 38.1283 14.266 36.5879 14.6009C35.0474 14.9358 33.7414 15.5721 32.7032 16.4763C31.6651 17.3805 30.8949 18.6195 30.359 20.16C29.8232 21.734 29.5888 23.7433 29.5888 26.1544C29.5888 28.4986 29.8232 30.4409 30.3256 31.9814C30.7944 33.5219 31.5646 34.7609 32.5693 35.6651C33.5739 36.6028 34.88 37.2391 36.4539 37.6074C37.9944 38.0093 39.8697 38.1767 42.013 38.1767ZM42.013 32.986C40.8074 32.986 39.8363 32.9191 39.0325 32.7516C38.2288 32.6177 37.5925 32.2828 37.1237 31.7805C36.6549 31.3116 36.32 30.6084 36.119 29.7042C35.9181 28.8335 35.8176 27.6279 35.8176 26.1544C35.8176 24.6139 35.9181 23.4084 36.119 22.5042C36.32 21.6 36.6549 20.8967 37.1237 20.4279C37.5925 19.9591 38.2288 19.6242 39.0325 19.4902C39.8363 19.3563 40.8074 19.2558 42.013 19.2558C43.1851 19.2558 44.1563 19.3563 44.96 19.4902C45.7637 19.6242 46.4 19.9591 46.9023 20.4279C47.3711 20.8967 47.7395 21.6 47.9404 22.5042C48.1414 23.4419 48.2418 24.6474 48.2418 26.1544C48.2418 27.6279 48.1414 28.8335 47.9404 29.7042C47.7395 30.6084 47.3711 31.3116 46.9023 31.7805C46.4335 32.2828 45.7972 32.6177 44.9935 32.7516C44.1897 32.9191 43.1851 32.986 42.013 32.986Z" fill="white"/>
<path d="M63.4584 28.0967V14.5674H57.2965V37.6744H62.1188L72.6007 24.2791V37.6744L78.6585 27.2093L78.7626 14.5674H73.8063L63.4584 28.0967ZM68.0128 13.5628C69.2184 13.5628 70.2565 13.4623 71.0602 13.2614C71.864 13.0605 72.5337 12.7591 73.036 12.3572C73.5384 11.9553 73.9067 11.4195 74.1077 10.7833C74.3086 10.147 74.4426 9.37674 74.4426 8.50604H70.1226C70.1226 9.10883 69.9551 9.51069 69.6202 9.71162C69.2854 9.91255 68.7495 10.013 68.0128 10.013C67.2761 10.013 66.7402 9.91255 66.4053 9.71162C66.0705 9.51069 65.903 9.10883 65.903 8.50604H61.583C61.583 9.37674 61.6835 10.147 61.8844 10.7833C62.0854 11.4195 62.4537 11.9553 62.9561 12.3572C63.4584 12.7591 64.1281 13.0605 64.9319 13.2614C65.7356 13.4623 66.7737 13.5628 68.0128 13.5628Z" fill="white"/>
<path fill-rule="evenodd" clip-rule="evenodd" d="M89.5256 1.08527C95.851 14.0607 102.177 27.0373 108.503 40.0152C105.806 42.7387 103.109 45.4624 100.411 48.1865C100.382 48.1767 100.354 48.1672 100.325 48.1574C97.1454 44.1726 89.9334 42.5834 84.1693 45.1516C83.2096 45.5791 82.2858 46.1698 81.4911 46.7859C81.1181 47.0749 79.8322 48.5438 79.5615 48.5659C78.4961 47.6028 77.4306 46.6398 76.3649 45.6768C75.2131 44.5484 74.0611 43.42 72.9091 42.2916C72.1125 41.5233 71.3157 40.7548 70.5189 39.9861C71.8051 37.3891 73.0914 34.7917 74.3778 32.1942L76.912 27.1456L80.5984 3.27399H80.6272L84.7452 10.9491C86.3386 7.66149 87.932 4.37354 89.5256 1.08527ZM89.5256 6.4841C88.1435 9.3243 86.7612 12.1648 85.3788 15.0055C85.446 16.3283 85.5132 17.6513 85.5803 18.9744H85.5516L81.8079 10.0736L81.7503 10.132C80.8672 16.075 79.9841 22.0186 79.1009 27.9629C78.1027 29.9956 77.1043 32.0286 76.1059 34.0621C75.2037 35.9199 74.3013 37.7778 73.3989 39.6358C75.146 41.2994 76.8931 42.9629 78.6401 44.6261C79.685 42.4526 81.2343 40.5684 83.1553 39.1351C85.0764 37.7018 87.3117 36.7621 89.6697 36.3966C89.0726 36.2542 88.4827 36.1387 87.8842 36.0463C85.5047 35.6798 83.5375 35.9132 82.5566 36.3382C82.0448 36.5605 81.5614 36.8447 81.1167 37.1845C81.6295 36.2366 82.3988 35.457 83.3341 34.9375L89.4969 23.1476C91.599 27.058 93.7012 30.9685 95.8035 34.879C96.0884 34.9442 96.3677 35.0321 96.6388 35.1418C97.5426 35.508 98.3305 36.1093 98.9715 36.8927C98.3067 36.4237 97.5045 36.1973 96.6963 36.2506C95.9936 36.2627 95.2919 36.3114 94.5942 36.3966C93.5209 36.5273 92.309 36.7886 91.0232 37.1554C90.1837 37.3946 89.3986 37.6563 88.6617 37.9433C87.5339 38.3826 86.4934 38.8622 85.6668 39.344C83.606 40.5457 81.7837 42.4026 81.1167 43.167C80.7873 43.5404 80.4887 43.9405 80.224 44.3634C80.0549 44.6366 79.901 44.9191 79.7632 45.2098C80.6188 44.5722 81.5241 44.0061 82.4702 43.5173C84.818 42.3036 86.8969 41.7342 88.7481 41.5328C91.7578 41.2054 94.8901 41.7457 97.7618 43.0795C98.6977 43.5141 99.594 44.0317 100.44 44.6261C102.197 42.9628 103.953 41.2993 105.71 39.6358C100.316 28.5865 94.9211 17.536 89.5256 6.4841Z" fill="url(#paint1_linear_29_14)"/>
<defs>
<linearGradient id="paint0_linear_29_14" x1="87.3832" y1="27.4346" x2="160.503" y2="12.1219" gradientUnits="userSpaceOnUse">
<stop stop-color="#FF6726"/>
<stop offset="0.619792" stop-color="#FFAD3C"/>
<stop offset="1" stop-color="#FFEC3C"/>
</linearGradient>
<linearGradient id="paint1_linear_29_14" x1="70.5189" y1="48.8372" x2="108.503" y2="1.08527" gradientUnits="userSpaceOnUse">
<stop stop-color="#FF5520"/>
<stop offset="0.625" stop-color="#FFB43F"/>
<stop offset="1" stop-color="#F0D05D"/>
</linearGradient>
</defs>
</svg>
